<svg width="70" height="70" viewBox="0 0 70 70" fill="none" xmlns="http://www.w3.org/2000/svg">
<circle cx="35" cy="35" r="33.5" fill="#D9D9D9" stroke="#FF0303" stroke-width="3"/>
<path d="M19.7534 38.2354C19.6611 37.4971 19.5996 36.7466 19.5996 35.9837C19.5996 29.2776 23.2726 23.439 28.7112 20.3444L29.7264 22.4854V37.1095L28.6005 38.2354H19.7534ZM51.0996 37.1095C51.0996 38.2354 49.9737 39.3613 48.8479 39.3613H39.847C40.4068 41.6131 40.9729 43.8587 40.9729 44.9845C40.9729 47.2363 39.847 49.4819 39.2871 50.0479C39.2748 50.0602 38.7272 50.6078 37.6014 50.6078C35.9156 50.6078 35.9156 48.922 35.9156 48.922C35.9156 48.8913 35.3558 46.1104 35.3558 44.9845C35.3558 43.8587 33.104 39.3613 31.9781 38.2354L30.8522 37.6756V21.9256L31.9781 21.3657H44.3505C46.6022 21.3657 47.7281 22.4916 47.7281 23.6175C47.7281 24.7433 46.6022 25.8692 45.4764 25.8692C47.7281 25.8692 48.854 26.9951 48.854 28.121C48.854 29.2469 47.7281 30.3727 46.6022 30.3727C48.854 30.3727 49.9799 31.4986 49.9799 32.6245C49.9799 33.7504 48.854 34.8762 47.7281 34.8762C49.9737 34.8578 51.0996 35.9837 51.0996 37.1095Z" fill="#FF0303" style="mix-blend-mode:multiply"/>
</svg>
