<svg width="70" height="70" viewBox="0 0 70 70" fill="none" xmlns="http://www.w3.org/2000/svg">
<circle cx="35" cy="35" r="33.5" fill="#D9D9D9" stroke="#008000" stroke-width="3"/>
<path d="M19.1538 32.3724C19.0615 33.1106 19 33.8612 19 34.6241C19 41.3302 22.6729 47.1687 28.1116 50.2634L29.1268 48.1224V33.4982L28.0009 32.3724H19.1538ZM50.5 33.4982C50.5 32.3724 49.3741 31.2465 48.2482 31.2465H39.2474C39.8072 28.9947 40.3732 26.7491 40.3732 25.6232C40.3732 23.3715 39.2474 21.1259 38.6875 20.5599C38.6752 20.5476 38.1276 20 37.0018 20C35.316 20 35.316 21.6857 35.316 21.6857C35.316 21.7165 34.7562 24.4974 34.7562 25.6232C34.7562 26.7491 32.5044 31.2465 31.3785 32.3724L30.2526 32.9322V48.6822L31.3785 49.2421H43.7509C46.0026 49.2421 47.1285 48.1162 47.1285 46.9903C47.1285 45.8645 46.0026 44.7386 44.8768 44.7386C47.1285 44.7386 48.2544 43.6127 48.2544 42.4868C48.2544 41.3609 47.1285 40.2351 46.0026 40.2351C48.2544 40.2351 49.3803 39.1092 49.3803 37.9833C49.3803 36.8574 48.2544 35.7315 47.1285 35.7315C49.3741 35.75 50.5 34.6241 50.5 33.4982Z" fill="#008000"/>
</svg>
